<svg width="26" height="26" viewBox="0 0 26 26" fill="none" xmlns="http://www.w3.org/2000/svg">
<g clip-path="url(#clip0_4020_179)">
<path d="M9.34375 15.4375C10.0168 15.4375 10.5625 14.8918 10.5625 14.2188C10.5625 13.5457 10.0168 13 9.34375 13C8.67065 13 8.125 13.5457 8.125 14.2188C8.125 14.8918 8.67065 15.4375 9.34375 15.4375Z" fill="#52483E"/>
<path d="M16.6562 15.4375C17.3293 15.4375 17.875 14.8918 17.875 14.2188C17.875 13.5457 17.3293 13 16.6562 13C15.9832 13 15.4375 13.5457 15.4375 14.2188C15.4375 14.8918 15.9832 15.4375 16.6562 15.4375Z" fill="#52483E"/>
<path d="M15.5838 7.48406L16.0916 5.49039C16.1423 5.2898 16.2667 5.11569 16.4401 5.00275C16.6134 4.88982 16.823 4.84635 17.027 4.88102L20.6873 5.4843C20.8454 5.50996 20.9925 5.58134 21.1105 5.68962C21.2286 5.7979 21.3123 5.93836 21.3515 6.09367L24.3506 17.9125C24.3964 18.0983 24.3752 18.2943 24.2907 18.466C24.2061 18.6377 24.0637 18.774 23.8885 18.8509L17.0838 21.8673C16.9806 21.9142 16.8688 21.9394 16.7554 21.9412C16.642 21.9431 16.5295 21.9217 16.4247 21.8783C16.32 21.8348 16.2252 21.7704 16.1465 21.6888C16.0677 21.6073 16.0065 21.5104 15.9666 21.4042L14.9297 18.592" stroke="#52483E" stroke-width="1.625" stroke-linecap="round" stroke-linejoin="round"/>
<path d="M10.4155 7.48406L9.9077 5.49039C9.85698 5.2898 9.73254 5.11569 9.55919 5.00275C9.38583 4.88982 9.17628 4.84635 8.97231 4.88102L5.31199 5.4843C5.15389 5.50996 5.00675 5.58134 4.88872 5.68962C4.7707 5.7979 4.68694 5.93836 4.64777 6.09367L1.64863 17.9105C1.60282 18.0963 1.62405 18.2923 1.70858 18.4639C1.79312 18.6356 1.93554 18.7719 2.11074 18.8489L8.91543 21.8653C9.01869 21.9122 9.13047 21.9373 9.24385 21.9392C9.35724 21.9411 9.46979 21.9197 9.57455 21.8762C9.6793 21.8328 9.77401 21.7683 9.85281 21.6868C9.93161 21.6052 9.99281 21.5084 10.0326 21.4022L11.0696 18.592" stroke="#52483E" stroke-width="1.625" stroke-linecap="round" stroke-linejoin="round"/>
<path d="M8.125 7.9531C9.71347 7.51962 11.3535 7.30403 13 7.31224C14.6465 7.30403 16.2865 7.51962 17.875 7.9531" stroke="#52483E" stroke-width="1.625" stroke-linecap="round" stroke-linejoin="round"/>
<path d="M17.875 18.0469C16.2865 18.4803 14.6465 18.6959 13 18.6877C11.3535 18.6959 9.71347 18.4803 8.125 18.0469" stroke="#52483E" stroke-width="1.625" stroke-linecap="round" stroke-linejoin="round"/>
</g>
<defs>
<clipPath id="clip0_4020_179">
<rect width="26" height="26" fill="white"/>
</clipPath>
</defs>
</svg>
